<svg xmlns="http://www.w3.org/2000/svg" width="500" height="500">
<rect x="12" y="379" width="40" height="40" fill="none" stroke="black" stroke-width="2" />
<text x="32.0" y="399.0" font-size="10" text-anchor="middle" fill="red">1</text>
<rect x="125" y="114" width="50" height="50" fill="none" stroke="black" stroke-width="2" />
<text x="150.0" y="139.0" font-size="10" text-anchor="middle" fill="red">2</text>
<rect x="377" y="52" width="60" height="30" fill="none" stroke="black" stroke-width="2" />
<text x="407.0" y="67.0" font-size="10" text-anchor="middle" fill="red">3</text>
<rect x="302" y="216" width="40" height="40" fill="none" stroke="black" stroke-width="2" />
<text x="322.0" y="236.0" font-size="10" text-anchor="middle" fill="red">4</text>
<rect x="15" y="47" width="40" height="40" fill="none" stroke="black" stroke-width="2" />
<text x="35.0" y="67.0" font-size="10" text-anchor="middle" fill="red">5</text>
<rect x="119" y="258" width="60" height="30" fill="none" stroke="black" stroke-width="2" />
<text x="149.0" y="273.0" font-size="10" text-anchor="middle" fill="red">6</text>
<rect x="287" y="101" width="40" height="40" fill="none" stroke="black" stroke-width="2" />
<text x="307.0" y="121.0" font-size="10" text-anchor="middle" fill="red">7</text>
<rect x="301" y="142" width="30" height="60" fill="none" stroke="black" stroke-width="2" />
<text x="316.0" y="172.0" font-size="10" text-anchor="middle" fill="red">9</text>
<rect x="388" y="412" width="40" height="40" fill="none" stroke="black" stroke-width="2" />
<text x="408.0" y="432.0" font-size="10" text-anchor="middle" fill="red">10</text>
<rect x="357" y="216" width="60" height="30" fill="none" stroke="black" stroke-width="2" />
<text x="387.0" y="231.0" font-size="10" text-anchor="middle" fill="red">11</text>
<rect x="313" y="141" width="6" height="1" fill="none" stroke="blue" stroke-width="2" />
<rect x="314" y="202" width="6" height="14" fill="none" stroke="blue" stroke-width="2" />
<rect x="342" y="228" width="15" height="6" fill="none" stroke="blue" stroke-width="2" />
<rect x="147" y="164" width="6" height="94" fill="none" stroke="blue" stroke-width="2" />
<rect x="175" y="131" width="112" height="6" fill="none" stroke="blue" stroke-width="2" />
<rect x="404" y="82" width="6" height="134" fill="none" stroke="blue" stroke-width="2" />
<rect x="405" y="246" width="6" height="166" fill="none" stroke="blue" stroke-width="2" />
<rect x="32" y="87" width="6" height="292" fill="none" stroke="blue" stroke-width="2" />
<rect x="55" y="64" width="322" height="6" fill="none" stroke="blue" stroke-width="2" />
<circle cx="35" cy="379" r="2" fill="green" />
<circle cx="150" cy="164" r="2" fill="green" />
<circle cx="175" cy="134" r="2" fill="green" />
<circle cx="407" cy="82" r="2" fill="green" />
<circle cx="377" cy="67" r="2" fill="green" />
<circle cx="317" cy="216" r="2" fill="green" />
<circle cx="342" cy="231" r="2" fill="green" />
<circle cx="35" cy="87" r="2" fill="green" />
<circle cx="55" cy="67" r="2" fill="green" />
<circle cx="150" cy="258" r="2" fill="green" />
<circle cx="316" cy="141" r="2" fill="green" />
<circle cx="287" cy="134" r="2" fill="green" />
<circle cx="316" cy="142" r="2" fill="green" />
<circle cx="317" cy="202" r="2" fill="green" />
<circle cx="408" cy="412" r="2" fill="green" />
<circle cx="357" cy="231" r="2" fill="green" />
<circle cx="407" cy="216" r="2" fill="green" />
<circle cx="408" cy="246" r="2" fill="green" />
</svg>