<svg xmlns="http://www.w3.org/2000/svg" width="500" height="500">
<rect x="43" y="333" width="60" height="30" fill="none" stroke="black" stroke-width="2" />
<text x="73.0" y="348.0" font-size="10" text-anchor="middle" fill="red">1</text>
<rect x="11" y="69" width="30" height="60" fill="none" stroke="black" stroke-width="2" />
<text x="26.0" y="99.0" font-size="10" text-anchor="middle" fill="red">2</text>
<rect x="365" y="11" width="50" height="50" fill="none" stroke="black" stroke-width="2" />
<text x="390.0" y="36.0" font-size="10" text-anchor="middle" fill="red">3</text>
<rect x="424" y="248" width="40" height="40" fill="none" stroke="black" stroke-width="2" />
<text x="444.0" y="268.0" font-size="10" text-anchor="middle" fill="red">4</text>
<rect x="248" y="412" width="30" height="60" fill="none" stroke="black" stroke-width="2" />
<text x="263.0" y="442.0" font-size="10" text-anchor="middle" fill="red">5</text>
<rect x="389" y="80" width="50" height="50" fill="none" stroke="black" stroke-width="2" />
<text x="414.0" y="105.0" font-size="10" text-anchor="middle" fill="red">6</text>
<rect x="269" y="58" width="50" height="50" fill="none" stroke="black" stroke-width="2" />
<text x="294.0" y="83.0" font-size="10" text-anchor="middle" fill="red">8</text>
<rect x="190" y="328" width="40" height="40" fill="none" stroke="black" stroke-width="2" />
<text x="210.0" y="348.0" font-size="10" text-anchor="middle" fill="red">9</text>
<rect x="433" y="161" width="40" height="40" fill="none" stroke="black" stroke-width="2" />
<text x="453.0" y="181.0" font-size="10" text-anchor="middle" fill="red">10</text>
<rect x="45" y="23" width="50" height="50" fill="none" stroke="black" stroke-width="2" />
<text x="70.0" y="48.0" font-size="10" text-anchor="middle" fill="red">11</text>
<rect x="40.0" y="89.0" width="6.0" height="20" fill="none" stroke="blue" stroke-width="2" />
<rect x="390.15996459491413" y="60.0" width="20" height="21.0" fill="none" stroke="blue" stroke-width="2" />
<rect x="404.0" y="129.0" width="20" height="33.0" fill="none" stroke="blue" stroke-width="2" />
<rect x="433.9091235562985" y="200.0" width="20" height="49.0" fill="none" stroke="blue" stroke-width="2" />
<rect x="318.0" y="73.0" width="48.0" height="20" fill="none" stroke="blue" stroke-width="2" />
<rect x="102.0" y="339.11732311291104" width="89.0" height="20" fill="none" stroke="blue" stroke-width="2" />
<rect x="94.0" y="38.0" width="176.0" height="20" fill="none" stroke="blue" stroke-width="2" />
<rect x="47.63419216568982" y="72.0" width="20" height="262.0" fill="none" stroke="blue" stroke-width="2" />
<rect x="284.0" y="107.0" width="20" height="306.0" fill="none" stroke="blue" stroke-width="2" />
<circle cx="103" cy="349.11732311291104" r="2" fill="green" />
<circle cx="57.63419216568982" cy="333" r="2" fill="green" />
<circle cx="41" cy="99.0" r="2" fill="green" />
<circle cx="400.15996459491413" cy="61" r="2" fill="green" />
<circle cx="365" cy="83.0" r="2" fill="green" />
<circle cx="443.9091235562985" cy="248" r="2" fill="green" />
<circle cx="294.0" cy="412" r="2" fill="green" />
<circle cx="400.15996459491413" cy="80" r="2" fill="green" />
<circle cx="414.0" cy="130" r="2" fill="green" />
<circle cx="319" cy="83.0" r="2" fill="green" />
<circle cx="269" cy="48.0" r="2" fill="green" />
<circle cx="294.0" cy="108" r="2" fill="green" />
<circle cx="190" cy="349.11732311291104" r="2" fill="green" />
<circle cx="414.0" cy="161" r="2" fill="green" />
<circle cx="443.9091235562985" cy="201" r="2" fill="green" />
<circle cx="45" cy="99.0" r="2" fill="green" />
<circle cx="95" cy="48.0" r="2" fill="green" />
<circle cx="57.63419216568982" cy="73" r="2" fill="green" />
</svg>