<svg xmlns="http://www.w3.org/2000/svg" width="485.0" height="410.0">
<rect x="235.0" y="110.0" width="20" height="20" fill="lightblue" stroke="black" />
<text x="245.0" y="120.0" font-size="10" text-anchor="middle" dominant-baseline="middle">0</text>
<rect x="285.0" y="170.0" width="20" height="20" fill="lightblue" stroke="black" />
<text x="295.0" y="180.0" font-size="10" text-anchor="middle" dominant-baseline="middle">1</text>
<rect x="70.0" y="150.0" width="30" height="20" fill="lightblue" stroke="black" />
<text x="85.0" y="160.0" font-size="10" text-anchor="middle" dominant-baseline="middle">2</text>
<rect x="295.0" y="55.0" width="20" height="30" fill="lightblue" stroke="black" />
<text x="305.0" y="70.0" font-size="10" text-anchor="middle" dominant-baseline="middle">3</text>
<rect x="455.0" y="120.0" width="20" height="20" fill="lightblue" stroke="black" />
<text x="465.0" y="130.0" font-size="10" text-anchor="middle" dominant-baseline="middle">4</text>
<rect x="235.0" y="305.0" width="40" height="30" fill="lightblue" stroke="black" />
<text x="255.0" y="320.0" font-size="10" text-anchor="middle" dominant-baseline="middle">5</text>
<rect x="205.0" y="370.0" width="20" height="30" fill="lightblue" stroke="black" />
<text x="215.0" y="385.0" font-size="10" text-anchor="middle" dominant-baseline="middle">6</text>
<rect x="10.0" y="100.0" width="20" height="30" fill="lightblue" stroke="black" />
<text x="20.0" y="115.0" font-size="10" text-anchor="middle" dominant-baseline="middle">7</text>
<rect x="455.0" y="10.0" width="20" height="30" fill="lightblue" stroke="black" />
<text x="465.0" y="25.0" font-size="10" text-anchor="middle" dominant-baseline="middle">8</text>
<rect x="310.0" y="270.0" width="30" height="20" fill="lightblue" stroke="black" />
<text x="325.0" y="280.0" font-size="10" text-anchor="middle" dominant-baseline="middle">9</text>
<rect x="240.0" y="130.0" width="10" height="50" fill="black" />
<rect x="245.0" y="175.0" width="40" height="10" fill="black" />
<rect x="85.0" y="115.0" width="150" height="10" fill="black" />
<rect x="80.0" y="120.0" width="10" height="30" fill="black" />
<rect x="240.0" y="70.0" width="10" height="40" fill="black" />
<rect x="245.0" y="65.0" width="50" height="10" fill="black" />
<rect x="315.0" y="65.0" width="150" height="10" fill="black" />
<rect x="460.0" y="70.0" width="10" height="50" fill="black" />
<rect x="80.0" y="170.0" width="10" height="150" fill="black" />
<rect x="85.0" y="315.0" width="150" height="10" fill="black" />
<rect x="250.0" y="335.0" width="10" height="50" fill="black" />
<rect x="225.0" y="380.0" width="30" height="10" fill="black" />
<rect x="20.0" y="155.0" width="50" height="10" fill="black" />
<rect x="15.0" y="130.0" width="10" height="30" fill="black" />
<rect x="300.0" y="25.0" width="10" height="30" fill="black" />
<rect x="305.0" y="20.0" width="150" height="10" fill="black" />
<rect x="275.0" y="315.0" width="50" height="10" fill="black" />
<rect x="320.0" y="290.0" width="10" height="30" fill="black" />
</svg>