<svg xmlns="http://www.w3.org/2000/svg" width="2093.746431186626" height="2752.9990526294064">
<rect x="578.7768250540461" y="666.3696128082081" width="40" height="30" fill="lightblue" stroke="black" />
<text x="598.7768250540461" y="681.3696128082081" font-size="10" text-anchor="middle" dominant-baseline="middle">0</text>
<rect x="783.7768250540461" y="711.3696128082081" width="30" height="20" fill="lightblue" stroke="black" />
<text x="798.7768250540461" y="721.3696128082081" font-size="10" text-anchor="middle" dominant-baseline="middle">1</text>
<rect x="523.1852245325274" y="812.7081439505573" width="30" height="20" fill="lightblue" stroke="black" />
<text x="538.1852245325274" y="822.7081439505573" font-size="10" text-anchor="middle" dominant-baseline="middle">2</text>
<rect x="641.8501864661947" y="561.9404080944464" width="40" height="30" fill="lightblue" stroke="black" />
<text x="661.8501864661947" y="576.9404080944464" font-size="10" text-anchor="middle" dominant-baseline="middle">3</text>
<rect x="1011.4052537566623" y="989.3756148955786" width="30" height="20" fill="lightblue" stroke="black" />
<text x="1026.4052537566622" y="999.3756148955786" font-size="10" text-anchor="middle" dominant-baseline="middle">4</text>
<rect x="538.3344991503836" y="699.2751595081293" width="20" height="30" fill="lightblue" stroke="black" />
<text x="548.3344991503836" y="714.2751595081293" font-size="10" text-anchor="middle" dominant-baseline="middle">5</text>
<rect x="821.202658276393" y="691.51826144651" width="30" height="20" fill="lightblue" stroke="black" />
<text x="836.202658276393" y="701.51826144651" font-size="10" text-anchor="middle" dominant-baseline="middle">6</text>
<rect x="944.9366834605283" y="1464.0422367256594" width="20" height="30" fill="lightblue" stroke="black" />
<text x="954.9366834605283" y="1479.0422367256594" font-size="10" text-anchor="middle" dominant-baseline="middle">7</text>
<rect x="663.415782320628" y="332.36338651631" width="20" height="30" fill="lightblue" stroke="black" />
<text x="673.415782320628" y="347.36338651631" font-size="10" text-anchor="middle" dominant-baseline="middle">8</text>
<rect x="1110.6846112898188" y="853.9756558059084" width="30" height="40" fill="lightblue" stroke="black" />
<text x="1125.6846112898188" y="873.9756558059084" font-size="10" text-anchor="middle" dominant-baseline="middle">9</text>
<rect x="420.608963953757" y="1738.6522961447151" width="40" height="30" fill="lightblue" stroke="black" />
<text x="440.608963953757" y="1753.6522961447151" font-size="10" text-anchor="middle" dominant-baseline="middle">10</text>
<rect x="1238.5076405049472" y="965.2575645036691" width="20" height="20" fill="lightblue" stroke="black" />
<text x="1248.5076405049472" y="975.2575645036691" font-size="10" text-anchor="middle" dominant-baseline="middle">11</text>
<rect x="787.0619263174766" y="893.0554933189144" width="30" height="40" fill="lightblue" stroke="black" />
<text x="802.0619263174766" y="913.0554933189144" font-size="10" text-anchor="middle" dominant-baseline="middle">12</text>
<rect x="481.49122657339524" y="506.5182614465106" width="20" height="20" fill="lightblue" stroke="black" />
<text x="491.49122657339524" y="516.5182614465107" font-size="10" text-anchor="middle" dominant-baseline="middle">13</text>
<rect x="1271.3951295214465" y="845.6576670467666" width="30" height="20" fill="lightblue" stroke="black" />
<text x="1286.3951295214465" y="855.6576670467666" font-size="10" text-anchor="middle" dominant-baseline="middle">14</text>
<rect x="45.42663669047147" y="2398.0163293614587" width="30" height="40" fill="lightblue" stroke="black" />
<text x="60.42663669047147" y="2418.0163293614587" font-size="10" text-anchor="middle" dominant-baseline="middle">15</text>
<rect x="1096.9478247907955" y="457.82546818769384" width="30" height="40" fill="lightblue" stroke="black" />
<text x="1111.9478247907955" y="477.82546818769384" font-size="10" text-anchor="middle" dominant-baseline="middle">16</text>
<rect x="1406.125253160203" y="1318.6300392545204" width="20" height="20" fill="lightblue" stroke="black" />
<text x="1416.125253160203" y="1328.6300392545204" font-size="10" text-anchor="middle" dominant-baseline="middle">17</text>
<rect x="836.6963202110884" y="1384.8016716737245" width="40" height="30" fill="lightblue" stroke="black" />
<text x="856.6963202110884" y="1399.8016716737245" font-size="10" text-anchor="middle" dominant-baseline="middle">18</text>
<rect x="1478.882662823763" y="585.7776042719602" width="20" height="30" fill="lightblue" stroke="black" />
<text x="1488.882662823763" y="600.7776042719602" font-size="10" text-anchor="middle" dominant-baseline="middle">19</text>
<rect x="958.7650510413273" y="2108.4711696747745" width="20" height="20" fill="lightblue" stroke="black" />
<text x="968.7650510413273" y="2118.4711696747745" font-size="10" text-anchor="middle" dominant-baseline="middle">20</text>
<rect x="504.0139035602323" y="377.1270751587535" width="30" height="20" fill="lightblue" stroke="black" />
<text x="519.0139035602323" y="387.1270751587535" font-size="10" text-anchor="middle" dominant-baseline="middle">21</text>
<rect x="1126.2102834661896" y="690.5274704742221" width="30" height="40" fill="lightblue" stroke="black" />
<text x="1141.2102834661896" y="710.5274704742221" font-size="10" text-anchor="middle" dominant-baseline="middle">22</text>
<rect x="20.0" y="890.664123257138" width="40" height="30" fill="lightblue" stroke="black" />
<text x="40.0" y="905.664123257138" font-size="10" text-anchor="middle" dominant-baseline="middle">23</text>
<rect x="1648.7464311866238" y="45.0" width="20" height="20" fill="lightblue" stroke="black" />
<text x="1658.7464311866238" y="55.0" font-size="10" text-anchor="middle" dominant-baseline="middle">24</text>
<rect x="2063.746431186626" y="734.5190528383278" width="20" height="20" fill="lightblue" stroke="black" />
<text x="2073.746431186626" y="744.5190528383278" font-size="10" text-anchor="middle" dominant-baseline="middle">25</text>
<rect x="558.2199274437759" y="779.7282148754682" width="30" height="40" fill="lightblue" stroke="black" />
<text x="573.2199274437759" y="799.7282148754682" font-size="10" text-anchor="middle" dominant-baseline="middle">26</text>
<rect x="1673.4958913188125" y="1831.5074733692447" width="30" height="20" fill="lightblue" stroke="black" />
<text x="1688.4958913188125" y="1841.5074733692447" font-size="10" text-anchor="middle" dominant-baseline="middle">27</text>
<rect x="1374.0808021902394" y="2702.9990526294064" width="30" height="40" fill="lightblue" stroke="black" />
<text x="1389.0808021902394" y="2722.9990526294064" font-size="10" text-anchor="middle" dominant-baseline="middle">28</text>
<rect x="1012.3012189696399" y="317.6657911205629" width="40" height="30" fill="lightblue" stroke="black" />
<text x="1032.3012189696399" y="332.6657911205629" font-size="10" text-anchor="middle" dominant-baseline="middle">29</text>
<rect x="768.7768250540461" y="676.3696128082081" width="30" height="10" fill="black" />
<rect x="793.7768250540461" y="681.3696128082081" width="10" height="30" fill="black" />
<rect x="508.18522453252746" y="777.7081439505573" width="30" height="10" fill="black" />
<rect x="533.1852245325274" y="782.7081439505573" width="10" height="30" fill="black" />
<rect x="631.8501864661947" y="526.9404080944464" width="30" height="10" fill="black" />
<rect x="656.8501864661947" y="531.9404080944464" width="10" height="30" fill="black" />
<rect x="996.4052537566623" y="954.3756148955786" width="30" height="10" fill="black" />
<rect x="1021.4052537566623" y="959.3756148955786" width="10" height="30" fill="black" />
<rect x="518.3344991503836" y="664.2751595081293" width="30" height="10" fill="black" />
<rect x="543.3344991503836" y="669.2751595081293" width="10" height="30" fill="black" />
<rect x="806.202658276393" y="656.51826144651" width="30" height="10" fill="black" />
<rect x="831.202658276393" y="661.51826144651" width="10" height="30" fill="black" />
<rect x="924.9366834605283" y="1429.0422367256594" width="30" height="10" fill="black" />
<rect x="949.9366834605283" y="1434.0422367256594" width="10" height="30" fill="black" />
<rect x="643.415782320628" y="297.36338651631" width="30" height="10" fill="black" />
<rect x="668.415782320628" y="302.36338651631" width="10" height="30" fill="black" />
<rect x="1095.6846112898188" y="818.9756558059084" width="30" height="10" fill="black" />
<rect x="1120.6846112898188" y="823.9756558059084" width="10" height="30" fill="black" />
<rect x="410.608963953757" y="1703.6522961447151" width="30" height="10" fill="black" />
<rect x="435.608963953757" y="1708.6522961447151" width="10" height="30" fill="black" />
<rect x="1218.5076405049472" y="930.2575645036691" width="30" height="10" fill="black" />
<rect x="1243.5076405049472" y="935.2575645036691" width="10" height="30" fill="black" />
<rect x="772.0619263174766" y="858.0554933189144" width="30" height="10" fill="black" />
<rect x="797.0619263174766" y="863.0554933189144" width="10" height="30" fill="black" />
<rect x="461.49122657339524" y="471.5182614465106" width="30" height="10" fill="black" />
<rect x="486.49122657339524" y="476.5182614465106" width="10" height="30" fill="black" />
<rect x="1256.3951295214465" y="810.6576670467666" width="30" height="10" fill="black" />
<rect x="1281.3951295214465" y="815.6576670467666" width="10" height="30" fill="black" />
<rect x="30.42663669047147" y="2363.0163293614587" width="30" height="10" fill="black" />
<rect x="55.42663669047147" y="2368.0163293614587" width="10" height="30" fill="black" />
<rect x="1081.9478247907953" y="422.82546818769384" width="30" height="10" fill="black" />
<rect x="1106.9478247907955" y="427.82546818769384" width="10" height="30" fill="black" />
<rect x="1386.125253160203" y="1283.6300392545204" width="30" height="10" fill="black" />
<rect x="1411.125253160203" y="1288.6300392545204" width="10" height="30" fill="black" />
<rect x="826.6963202110884" y="1349.8016716737245" width="30" height="10" fill="black" />
<rect x="851.6963202110884" y="1354.8016716737245" width="10" height="30" fill="black" />
<rect x="1458.882662823763" y="550.7776042719602" width="30" height="10" fill="black" />
<rect x="1483.882662823763" y="555.7776042719602" width="10" height="30" fill="black" />
<rect x="938.7650510413273" y="2073.4711696747745" width="30" height="10" fill="black" />
<rect x="963.7650510413273" y="2078.4711696747745" width="10" height="30" fill="black" />
<rect x="489.0139035602323" y="342.1270751587535" width="30" height="10" fill="black" />
<rect x="514.0139035602323" y="347.1270751587535" width="10" height="30" fill="black" />
<rect x="1111.2102834661896" y="755.5274704742221" width="30" height="10" fill="black" />
<rect x="1136.2102834661896" y="730.5274704742221" width="10" height="30" fill="black" />
<rect x="10.0" y="855.664123257138" width="30" height="10" fill="black" />
<rect x="35.0" y="860.664123257138" width="10" height="30" fill="black" />
<rect x="1628.7464311866238" y="10.0" width="30" height="10" fill="black" />
<rect x="1653.7464311866238" y="15.0" width="10" height="30" fill="black" />
<rect x="2043.746431186626" y="699.5190528383278" width="30" height="10" fill="black" />
<rect x="2068.746431186626" y="704.5190528383278" width="10" height="30" fill="black" />
<rect x="543.2199274437759" y="744.7282148754682" width="30" height="10" fill="black" />
<rect x="568.2199274437759" y="749.7282148754682" width="10" height="30" fill="black" />
<rect x="1658.4958913188125" y="1796.5074733692447" width="30" height="10" fill="black" />
<rect x="1683.4958913188125" y="1801.5074733692447" width="10" height="30" fill="black" />
<rect x="1359.0808021902394" y="2667.9990526294064" width="30" height="10" fill="black" />
<rect x="1384.0808021902394" y="2672.9990526294064" width="10" height="30" fill="black" />
<rect x="1002.3012189696399" y="282.6657911205629" width="30" height="10" fill="black" />
<rect x="1027.3012189696399" y="287.6657911205629" width="10" height="30" fill="black" />
</svg>