<?xml version="1.0" encoding="utf-8" ?>
<svg baseProfile="tiny" height="400px" version="1.2" width="400px" xmlns="http://www.w3.org/2000/svg" xmlns:ev="http://www.w3.org/2001/xml-events" xmlns:xlink="http://www.w3.org/1999/xlink"><defs /><rect fill="lightblue" height="20" stroke="black" stroke-width="0.5" width="20" x="264" y="12" /><text font-size="8" text-anchor="middle" x="274.0" y="25.0">1</text><rect fill="lightblue" height="20" stroke="black" stroke-width="0.5" width="20" x="244" y="12" /><text font-size="8" text-anchor="middle" x="254.0" y="25.0">2</text><rect fill="lightblue" height="20" stroke="black" stroke-width="0.5" width="20" x="364" y="328" /><text font-size="8" text-anchor="middle" x="374.0" y="341.0">3</text><rect fill="lightblue" height="20" stroke="black" stroke-width="0.5" width="20" x="360" y="196" /><text font-size="8" text-anchor="middle" x="370.0" y="209.0">4</text><rect fill="lightblue" height="40" stroke="black" stroke-width="0.5" width="40" x="312" y="344" /><text font-size="8" text-anchor="middle" x="332.0" y="367.0">5</text><rect fill="lightblue" height="40" stroke="black" stroke-width="0.5" width="40" x="8" y="96" /><text font-size="8" text-anchor="middle" x="28.0" y="119.0">6</text><rect fill="lightblue" height="40" stroke="black" stroke-width="0.5" width="40" x="156" y="40" /><text font-size="8" text-anchor="middle" x="176.0" y="63.0">7</text><rect fill="lightblue" height="20" stroke="black" stroke-width="0.5" width="20" x="76" y="192" /><text font-size="8" text-anchor="middle" x="86.0" y="205.0">8</text><rect fill="lightblue" height="40" stroke="black" stroke-width="0.5" width="40" x="208" y="192" /><text font-size="8" text-anchor="middle" x="228.0" y="215.0">9</text><rect fill="lightblue" height="20" stroke="black" stroke-width="0.5" width="20" x="8" y="372" /><text font-size="8" text-anchor="middle" x="18.0" y="385.0">10</text><polyline fill="none" points="366.0,326.0 362.0,326.0 358.0,326.0 354.0,326.0 350.0,326.0 346.0,326.0 342.0,326.0 338.0,326.0 334.0,326.0 330.0,326.0 326.0,326.0 322.0,326.0 318.0,326.0 314.0,326.0 314.0,330.0 314.0,334.0 314.0,338.0 314.0,342.0" stroke="red" stroke-width="0.5" /><polyline fill="none" points="10.0,94.0 10.0,90.0 10.0,86.0 10.0,82.0 14.0,82.0 18.0,82.0 22.0,82.0 26.0,82.0 30.0,82.0 34.0,82.0 38.0,82.0 42.0,82.0 46.0,82.0 50.0,82.0 54.0,82.0 58.0,82.0 62.0,82.0 66.0,82.0 70.0,82.0 74.0,82.0 78.0,82.0 82.0,82.0 86.0,82.0 90.0,82.0 94.0,82.0 98.0,82.0 102.0,82.0 106.0,82.0 110.0,82.0 114.0,82.0 118.0,82.0 122.0,82.0 126.0,82.0 130.0,82.0 134.0,82.0 138.0,82.0 142.0,82.0 146.0,82.0 150.0,82.0 154.0,82.0 158.0,82.0" stroke="red" stroke-width="0.5" /><polyline fill="none" points="366.0,326.0 366.0,322.0 362.0,322.0 358.0,322.0 358.0,318.0 358.0,314.0 358.0,310.0 358.0,306.0 358.0,302.0 358.0,298.0 358.0,294.0 358.0,290.0 358.0,286.0 358.0,282.0 358.0,278.0 358.0,274.0 358.0,270.0 358.0,266.0 358.0,262.0 358.0,258.0 358.0,254.0 358.0,250.0 358.0,246.0 358.0,242.0 358.0,238.0 358.0,234.0 358.0,230.0 358.0,226.0 358.0,222.0 358.0,218.0 358.0,214.0 358.0,210.0 358.0,206.0 358.0,202.0 358.0,198.0 358.0,194.0 362.0,194.0" stroke="red" stroke-width="0.5" /><polyline fill="none" points="78.0,190.0 78.0,186.0 82.0,186.0 86.0,186.0 90.0,186.0 94.0,186.0 98.0,186.0 102.0,186.0 106.0,186.0 110.0,186.0 114.0,186.0 118.0,186.0 122.0,186.0 126.0,186.0 130.0,186.0 134.0,186.0 138.0,186.0 142.0,186.0 146.0,186.0 150.0,186.0 154.0,186.0 158.0,186.0 162.0,186.0 166.0,186.0 170.0,186.0 174.0,186.0 178.0,186.0 182.0,186.0 186.0,186.0 190.0,186.0 194.0,186.0 198.0,186.0 202.0,186.0 206.0,186.0 210.0,186.0 214.0,186.0 218.0,186.0 222.0,186.0 226.0,186.0 230.0,186.0 234.0,186.0 238.0,186.0 242.0,186.0 246.0,186.0 250.0,186.0 254.0,186.0 258.0,186.0 262.0,186.0 266.0,186.0 270.0,186.0 274.0,186.0 278.0,186.0 282.0,186.0 286.0,186.0 290.0,186.0 294.0,186.0 298.0,186.0 302.0,186.0 306.0,186.0 310.0,186.0 314.0,186.0 318.0,186.0 322.0,186.0 326.0,186.0 330.0,186.0 334.0,186.0 338.0,186.0 342.0,186.0 346.0,186.0 350.0,186.0 354.0,186.0 358.0,186.0 362.0,186.0 366.0,186.0 366.0,190.0 366.0,194.0 370.0,194.0 374.0,194.0 378.0,194.0 382.0,194.0 382.0,198.0 382.0,202.0 382.0,206.0 382.0,210.0 382.0,214.0 382.0,218.0 382.0,222.0 382.0,226.0 382.0,230.0 382.0,234.0 382.0,238.0 382.0,242.0 382.0,246.0 382.0,250.0 382.0,254.0 382.0,258.0 382.0,262.0 382.0,266.0 382.0,270.0 382.0,274.0 382.0,278.0 382.0,282.0 382.0,286.0 382.0,290.0 382.0,294.0 382.0,298.0 382.0,302.0 382.0,306.0 382.0,310.0 382.0,314.0 382.0,318.0 382.0,322.0 382.0,326.0 386.0,326.0 386.0,330.0 386.0,334.0 386.0,338.0 386.0,342.0 386.0,346.0 386.0,350.0 382.0,350.0 378.0,350.0 374.0,350.0 370.0,350.0 366.0,350.0 362.0,350.0 358.0,350.0 354.0,350.0 354.0,354.0 354.0,358.0 354.0,362.0 354.0,366.0 354.0,370.0 354.0,374.0 354.0,378.0 354.0,382.0 354.0,386.0 350.0,386.0 346.0,386.0 342.0,386.0 338.0,386.0 334.0,386.0 330.0,386.0 326.0,386.0 322.0,386.0 318.0,386.0 314.0,386.0 310.0,386.0 306.0,386.0 302.0,386.0 298.0,386.0 294.0,386.0 290.0,386.0 286.0,386.0 282.0,386.0 278.0,386.0 274.0,386.0 270.0,386.0 266.0,386.0 262.0,386.0 258.0,386.0 254.0,386.0 250.0,386.0 246.0,386.0 242.0,386.0 238.0,386.0 234.0,386.0 230.0,386.0 226.0,386.0 222.0,386.0 218.0,386.0 214.0,386.0 210.0,386.0 206.0,386.0 202.0,386.0 198.0,386.0 194.0,386.0 190.0,386.0 186.0,386.0 182.0,386.0 178.0,386.0 174.0,386.0 170.0,386.0 166.0,386.0 162.0,386.0 158.0,386.0 154.0,386.0 150.0,386.0 146.0,386.0 142.0,386.0 138.0,386.0 134.0,386.0 130.0,386.0 126.0,386.0 122.0,386.0 118.0,386.0 114.0,386.0 110.0,386.0 106.0,386.0 102.0,386.0 98.0,386.0 94.0,386.0 90.0,386.0 86.0,386.0 82.0,386.0 78.0,386.0 74.0,386.0 70.0,386.0 66.0,386.0 62.0,386.0 58.0,386.0 54.0,386.0 50.0,386.0 46.0,386.0 42.0,386.0 38.0,386.0 34.0,386.0 30.0,386.0 30.0,382.0 30.0,378.0 30.0,374.0 30.0,370.0 26.0,370.0 22.0,370.0 18.0,370.0 14.0,370.0 10.0,370.0" stroke="red" stroke-width="0.5" /><polyline fill="none" points="246.0,10.0 242.0,10.0 238.0,10.0 234.0,10.0 230.0,10.0 226.0,10.0 222.0,10.0 218.0,10.0 214.0,10.0 210.0,10.0 206.0,10.0 202.0,10.0 198.0,10.0 194.0,10.0 190.0,10.0 186.0,10.0 182.0,10.0 178.0,10.0 174.0,10.0 170.0,10.0 166.0,10.0 162.0,10.0 158.0,10.0 158.0,14.0 158.0,18.0 158.0,22.0 158.0,26.0 158.0,30.0 158.0,34.0 158.0,38.0" stroke="red" stroke-width="0.5" /><polyline fill="none" points="10.0,94.0 14.0,94.0 18.0,94.0 22.0,94.0 26.0,94.0 30.0,94.0 34.0,94.0 38.0,94.0 42.0,94.0 46.0,94.0 50.0,94.0 50.0,98.0 50.0,102.0 50.0,106.0 50.0,110.0 50.0,114.0 50.0,118.0 50.0,122.0 50.0,126.0 50.0,130.0 50.0,134.0 50.0,138.0 50.0,142.0 50.0,146.0 50.0,150.0 50.0,154.0 50.0,158.0 50.0,162.0 50.0,166.0 50.0,170.0 50.0,174.0 50.0,178.0 50.0,182.0 50.0,186.0 50.0,190.0 54.0,190.0 58.0,190.0 62.0,190.0 66.0,190.0 70.0,190.0 74.0,190.0 78.0,190.0" stroke="red" stroke-width="0.5" /><polyline fill="none" points="78.0,190.0 82.0,190.0 86.0,190.0 90.0,190.0 94.0,190.0 98.0,190.0 98.0,194.0 98.0,198.0 98.0,202.0 98.0,206.0 98.0,210.0 98.0,214.0 98.0,218.0 98.0,222.0 98.0,226.0 98.0,230.0 98.0,234.0 102.0,234.0 106.0,234.0 110.0,234.0 114.0,234.0 118.0,234.0 122.0,234.0 126.0,234.0 130.0,234.0 134.0,234.0 138.0,234.0 142.0,234.0 146.0,234.0 150.0,234.0 154.0,234.0 158.0,234.0 162.0,234.0 166.0,234.0 170.0,234.0 174.0,234.0 178.0,234.0 182.0,234.0 186.0,234.0 190.0,234.0 194.0,234.0 198.0,234.0 202.0,234.0 206.0,234.0 210.0,234.0" stroke="red" stroke-width="0.5" /><polyline fill="none" points="362.0,194.0 362.0,190.0 358.0,190.0 354.0,190.0 350.0,190.0 346.0,190.0 342.0,190.0 338.0,190.0 334.0,190.0 330.0,190.0 326.0,190.0 322.0,190.0 318.0,190.0 314.0,190.0 310.0,190.0 306.0,190.0 302.0,190.0 298.0,190.0 294.0,190.0 290.0,190.0 286.0,190.0 282.0,190.0 278.0,190.0 274.0,190.0 270.0,190.0 266.0,190.0 262.0,190.0 258.0,190.0 254.0,190.0 250.0,190.0 246.0,190.0 242.0,190.0 238.0,190.0 234.0,190.0 230.0,190.0 226.0,190.0 222.0,190.0 218.0,190.0 214.0,190.0 210.0,190.0" stroke="red" stroke-width="0.5" /><polyline fill="none" points="266.0,10.0 262.0,10.0 258.0,10.0 254.0,10.0 250.0,10.0 246.0,10.0" stroke="red" stroke-width="0.5" /></svg>